# xmcd
#
# Track frame offsets:
#	150
#	19810
#	37838
#	56527
#	73092
#	90413
#	102285
#	112955
#	133690
#	152688
#	169238
#	183913
#	195027
#	212340
#	234037
#	244769
#	259013
#	276640
#	288825
#	307990
#	322076
#	338961
#
# Disc length: 4753 seconds
#
# Revision: 3
# Processed by: cddbd v1.5.2PL0 Copyright (c) Steve Scherf et al.
# Submitted via: EasyCDDAExtractor 15.2.5.1
#
DISCID=28128f16
DTITLE=Various Artist - Sinner's Prayer
DYEAR=2008
DGENRE=Country
TTITLE0=Slaid Cleaves - Sinner's Prayer
TTITLE1=The Steeldrivers - If It Hadn't Been For Love
TTITLE2=Solomon Burke - Don't Tell Me What A Man Wont Do For A Woman
TTITLE3=Madelaine Peroux - Weary Blues
TTITLE4=Irma Thomas - Another Man Done Gone
TTITLE5=Sam Roberts - Love At The End Of The World
TTITLE6=Laudon Wainwright III - I'm Alright
TTITLE7=Kathleen Edwards - Six O' Clock News
TTITLE8=Blue Highway - Syncamore Hollow
TTITLE9=Uncle Earl - The Last Goodbye
TTITLE10=Alison Krauss - Crazy As Me
TTITLE11=Bela Fleck - Ain't Gonna Work Tomorrow
TTITLE12=Vienna Teng - The Tower
TTITLE13=Kelly Joe Phelbs - Big Shaky
TTITLE14=Linda Thompson - Katy Cruel
TTITLE15=Ron Block - Above The Line
TTITLE16=Sierra Hull - Secrets
TTITLE17=Dan Thyminski - It All Comes Down To You
TTITLE18=The Cox Family - Everabody's Reaching Out For Someone
TTITLE19=Peter Rowan&Tony Rice - You Were There For Me
TTITLE20=Cherish The Ladies - Betsy Belle And Mary Gray
TTITLE21=Steve Riley - La Toussaint
EXTD=
EXTT0=
EXTT1=
EXTT2=
EXTT3=
EXTT4=
EXTT5=
EXTT6=
EXTT7=
EXTT8=
EXTT9=
EXTT10=
EXTT11=
EXTT12=
EXTT13=
EXTT14=
EXTT15=
EXTT16=
EXTT17=
EXTT18=
EXTT19=
EXTT20=
EXTT21=
PLAYORDER=
